Coordinates
version=1
nRows=12
nColumns=24
inDegrees=yes

Units are S.I. units (second, meters, Newtons, ...)
Angles are in degrees.

endheader
time	pelvis_tilt	pelvis_list	pelvis_rotation	pelvis_tx	pelvis_ty	pelvis_tz	hip_flexion_r	hip_adduction_r	hip_rotation_r	knee_angle_r	ankle_angle_r	subtalar_angle_r	mtp_angle_r	hip_flexion_l	hip_adduction_l	hip_rotation_l	knee_angle_l	ankle_angle_l	subtalar_angle_l	mtp_angle_l	lumbar_extension	lumbar_bending	lumbar_rotation
      6.45000000	      7.81522050	     -0.63277664	     -3.16110225	      2.45175744	      0.82447530	     -0.16093527	     -0.00012849	      6.57175986	      3.94719023	    -16.44371636	     16.75696568	      2.63224503	      0.00000000	      6.15728776	      0.17025991	     -6.45535585	    -59.89501039	      7.71837104	    -23.24663003	      0.00000000	    -28.63515249	     -0.24038744	      1.92037433
      6.46000000	      7.81630956	     -0.33827922	     -3.75524631	      2.46211350	      0.82592469	     -0.15953305	     -1.37455261	      6.15025811	      4.20047806	    -15.31514120	     17.01738485	      3.19696981	      0.00000000	      7.63808155	      0.34163968	     -6.97232894	    -58.74353407	      9.11364458	    -21.90647532	      0.00000000	    -28.73395901	     -0.98281904	      2.38023365
      6.47000000	      7.79957010	     -0.11487066	     -4.35092515	      2.47247122	      0.82703313	     -0.15815021	     -2.71057952	      5.79516870	      4.47787779	    -14.21670058	     17.25586196	      3.68904428	      0.00000000	      9.02445059	      0.42356394	     -7.47228928	    -57.27358104	     10.19861574	    -20.82284295	      0.00000000	    -28.81404472	     -1.63085493	      2.76468995
      6.48000000	      7.81309398	      0.03021606	     -4.92664382	      2.48285721	      0.82785006	     -0.15679958	     -4.08576523	      5.51323095	      4.82353274	    -13.10967142	     17.47442799	      4.04984566	      0.00000000	     10.26262008	      0.42403319	     -7.89478490	    -55.51429288	     10.92266282	    -19.99723478	      0.00000000	    -28.92278878	     -2.18297429	      3.19958192
      6.49000000	      7.87005894	      0.11841648	     -5.48876151	      2.49326384	      0.82842609	     -0.15548621	     -5.50626636	      5.27254066	      5.20889363	    -12.01137981	     17.65364776	      4.33016085	      0.00000000	     11.31792776	      0.37022818	     -8.26281537	    -53.43534134	     11.26641181	    -19.54195380	      0.00000000	    -29.08997591	     -2.65909985	      3.61142597
      6.50000000	      7.93622704	      0.15641886	     -5.99704980	      2.50370538	      0.82871656	     -0.15426014	     -6.93711622	      5.06829690	      5.55824532	    -10.92160024	     17.83957453	      4.58250577	      0.00000000	     12.22980266	      0.27460878	     -8.54625454	    -51.05566172	     11.23316547	    -19.46390621	      0.00000000	    -29.27292544	     -3.04777379	      3.96345808
      6.51000000	      8.01764630	      0.13355682	     -6.44887823	      2.51417980	      0.82873341	     -0.15311314	     -8.38999537	      4.91203036	      5.85339973	     -9.83615154	     18.03217802	      4.84128378	      0.00000000	     12.98434569	      0.12426484	     -8.74780217	    -48.39153934	     10.88669219	    -19.65468257	      0.00000000	    -29.48299363	     -3.33909719	      4.29878549
      6.52000000	      8.14311374	      0.05554216	     -6.86850267	      2.52470351	      0.82851855	     -0.15201190	     -9.89967516	      4.79042287	      6.10447760	     -8.75197780	     18.23111206	      5.14266464	      0.00000000	     13.53118088	     -0.08083291	     -8.92464162	    -45.43499830	     10.29323620	    -20.02854765	      0.00000000	    -29.75863999	     -3.55817346	      4.63588949
      6.53000000	      8.30867083	     -0.07125892	     -7.27941536	      2.53530847	      0.82807264	     -0.15091964	    -11.45952248	      4.69530602	      6.32429537	     -7.68160985	     18.45622240	      5.48703141	      0.00000000	     13.85878702	     -0.33974132	     -9.12876220	    -42.18139972	      9.49073290	    -20.52981315	      0.00000000	    -30.07415540	     -3.72084090	      4.97056370
      6.54000000	      8.49461514	     -0.23001594	     -7.68289357	      2.54603109	      0.82736970	     -0.14981922	    -13.05135902	      4.61228035	      6.52336481	     -6.62035089	     18.70878322	      5.85847358	      0.00000000	     13.98505557	     -0.64411667	     -9.42811883	    -38.64043206	      8.53598572	    -21.08482770	      0.00000000	    -30.40218731	     -3.85275768	      5.30334696
      6.55000000	      8.66238217	     -0.43896808	     -8.09835499	      2.55689758	      0.82635754	     -0.14870620	    -14.63475228	      4.55934850	      6.75754423	     -5.57948966	     19.00406704	      6.25251801	      0.00000000	     13.96091742	     -1.02102562	     -9.88981651	    -34.86028917	      7.48575813	    -21.61018078	      0.00000000	    -30.68347634	     -3.93163180	      5.69228352
      6.56000000	      8.80190079	     -0.73640273	     -8.54920608	      2.56789132	      0.82504097	     -0.14757781	    -16.18612106	      4.57024761	      7.04467969	     -4.59616763	     19.31982292	      6.67302574	      0.00000000	     13.80709301	     -1.50815060	    -10.56726535	    -30.88986324	      6.43892757	    -22.00246006	      0.00000000	    -30.91634175	     -3.91830172	      6.20154130
